<mxfile host="app.diagrams.net" agent="Mozilla/5.0 (Macintosh; Intel Mac OS X 10_15_7) AppleWebKit/605.1.15 (KHTML, like Gecko) Version/17.2.1 Safari/605.1.15" version="24.7.6">
  <diagram name="Page-1" id="l0Qkx0A9AoquFF6I5-Xi">
    <mxGraphModel dx="1055" dy="626" grid="1" gridSize="10" guides="1" tooltips="1" connect="1" arrows="1" fold="1" page="1" pageScale="1" pageWidth="827" pageHeight="1169" math="0" shadow="0">
      <root>
        <mxCell id="0" />
        <mxCell id="1" parent="0" />
        <mxCell id="OPkMy_goKpDc7ms2g1P3-8" style="edgeStyle=orthogonalEdgeStyle;rounded=0;orthogonalLoop=1;jettySize=auto;html=1;entryX=0.5;entryY=0;entryDx=0;entryDy=0;" edge="1" parent="1" source="OPkMy_goKpDc7ms2g1P3-1" target="OPkMy_goKpDc7ms2g1P3-4">
          <mxGeometry relative="1" as="geometry">
            <Array as="points">
              <mxPoint x="410" y="500" />
              <mxPoint x="235" y="500" />
            </Array>
          </mxGeometry>
        </mxCell>
        <mxCell id="OPkMy_goKpDc7ms2g1P3-10" style="edgeStyle=orthogonalEdgeStyle;rounded=0;orthogonalLoop=1;jettySize=auto;html=1;entryX=0.5;entryY=0;entryDx=0;entryDy=0;" edge="1" parent="1" source="OPkMy_goKpDc7ms2g1P3-1" target="OPkMy_goKpDc7ms2g1P3-7">
          <mxGeometry relative="1" as="geometry">
            <Array as="points">
              <mxPoint x="410" y="500" />
              <mxPoint x="595" y="500" />
            </Array>
          </mxGeometry>
        </mxCell>
        <mxCell id="OPkMy_goKpDc7ms2g1P3-1" value="&lt;font style=&quot;font-size: 16px;&quot;&gt;Директор&lt;/font&gt;" style="rounded=1;whiteSpace=wrap;html=1;fillColor=#f8cecc;strokeColor=#b85450;" vertex="1" parent="1">
          <mxGeometry x="350" y="430" width="120" height="60" as="geometry" />
        </mxCell>
        <mxCell id="OPkMy_goKpDc7ms2g1P3-23" style="edgeStyle=orthogonalEdgeStyle;rounded=0;orthogonalLoop=1;jettySize=auto;html=1;entryX=1;entryY=0.5;entryDx=0;entryDy=0;" edge="1" parent="1" source="OPkMy_goKpDc7ms2g1P3-4" target="OPkMy_goKpDc7ms2g1P3-17">
          <mxGeometry relative="1" as="geometry">
            <Array as="points">
              <mxPoint x="320" y="605" />
              <mxPoint x="320" y="820" />
            </Array>
          </mxGeometry>
        </mxCell>
        <mxCell id="OPkMy_goKpDc7ms2g1P3-24" style="edgeStyle=orthogonalEdgeStyle;rounded=0;orthogonalLoop=1;jettySize=auto;html=1;entryX=1;entryY=0.5;entryDx=0;entryDy=0;" edge="1" parent="1" source="OPkMy_goKpDc7ms2g1P3-4" target="OPkMy_goKpDc7ms2g1P3-18">
          <mxGeometry relative="1" as="geometry">
            <Array as="points">
              <mxPoint x="320" y="605" />
              <mxPoint x="320" y="900" />
            </Array>
          </mxGeometry>
        </mxCell>
        <mxCell id="OPkMy_goKpDc7ms2g1P3-25" style="edgeStyle=orthogonalEdgeStyle;rounded=0;orthogonalLoop=1;jettySize=auto;html=1;entryX=0.5;entryY=0;entryDx=0;entryDy=0;" edge="1" parent="1" source="OPkMy_goKpDc7ms2g1P3-4" target="OPkMy_goKpDc7ms2g1P3-12">
          <mxGeometry relative="1" as="geometry" />
        </mxCell>
        <mxCell id="OPkMy_goKpDc7ms2g1P3-4" value="&lt;font style=&quot;font-size: 16px;&quot;&gt;Отдел розничных продаж и клиентского обслуживания&lt;/font&gt;" style="rounded=1;whiteSpace=wrap;html=1;fillColor=#d5e8d4;strokeColor=#82b366;" vertex="1" parent="1">
          <mxGeometry x="170" y="540" width="130" height="130" as="geometry" />
        </mxCell>
        <mxCell id="OPkMy_goKpDc7ms2g1P3-21" style="edgeStyle=orthogonalEdgeStyle;rounded=0;orthogonalLoop=1;jettySize=auto;html=1;entryX=0.5;entryY=0;entryDx=0;entryDy=0;" edge="1" parent="1" source="OPkMy_goKpDc7ms2g1P3-6" target="OPkMy_goKpDc7ms2g1P3-13">
          <mxGeometry relative="1" as="geometry" />
        </mxCell>
        <mxCell id="OPkMy_goKpDc7ms2g1P3-22" style="edgeStyle=orthogonalEdgeStyle;rounded=0;orthogonalLoop=1;jettySize=auto;html=1;entryX=1;entryY=0.5;entryDx=0;entryDy=0;" edge="1" parent="1" source="OPkMy_goKpDc7ms2g1P3-6" target="OPkMy_goKpDc7ms2g1P3-19">
          <mxGeometry relative="1" as="geometry">
            <Array as="points">
              <mxPoint x="500" y="605" />
              <mxPoint x="500" y="730" />
              <mxPoint x="499" y="730" />
              <mxPoint x="499" y="820" />
            </Array>
          </mxGeometry>
        </mxCell>
        <mxCell id="OPkMy_goKpDc7ms2g1P3-6" value="&lt;div&gt;&lt;div&gt;&lt;font size=&quot;3&quot;&gt;Корпоративный отдел&lt;/font&gt;&lt;/div&gt;&lt;/div&gt;" style="rounded=1;whiteSpace=wrap;html=1;fillColor=#dae8fc;strokeColor=#6c8ebf;" vertex="1" parent="1">
          <mxGeometry x="349" y="540" width="130" height="130" as="geometry" />
        </mxCell>
        <mxCell id="OPkMy_goKpDc7ms2g1P3-20" style="edgeStyle=orthogonalEdgeStyle;rounded=0;orthogonalLoop=1;jettySize=auto;html=1;entryX=0.5;entryY=0;entryDx=0;entryDy=0;" edge="1" parent="1" source="OPkMy_goKpDc7ms2g1P3-7" target="OPkMy_goKpDc7ms2g1P3-14">
          <mxGeometry relative="1" as="geometry" />
        </mxCell>
        <mxCell id="OPkMy_goKpDc7ms2g1P3-7" value="&lt;div&gt;&lt;div&gt;&lt;span style=&quot;font-size: 16px;&quot;&gt;Ипотечный отдел&lt;/span&gt;&lt;br&gt;&lt;/div&gt;&lt;/div&gt;" style="rounded=1;whiteSpace=wrap;html=1;fillColor=#ffe6cc;strokeColor=#d79b00;" vertex="1" parent="1">
          <mxGeometry x="530" y="540" width="130" height="130" as="geometry" />
        </mxCell>
        <mxCell id="OPkMy_goKpDc7ms2g1P3-11" style="edgeStyle=orthogonalEdgeStyle;rounded=0;orthogonalLoop=1;jettySize=auto;html=1;entryX=0.467;entryY=0;entryDx=0;entryDy=0;entryPerimeter=0;" edge="1" parent="1" source="OPkMy_goKpDc7ms2g1P3-1" target="OPkMy_goKpDc7ms2g1P3-6">
          <mxGeometry relative="1" as="geometry" />
        </mxCell>
        <mxCell id="OPkMy_goKpDc7ms2g1P3-12" value="Менеджер" style="rounded=1;whiteSpace=wrap;html=1;" vertex="1" parent="1">
          <mxGeometry x="175" y="700" width="120" height="60" as="geometry" />
        </mxCell>
        <mxCell id="OPkMy_goKpDc7ms2g1P3-13" value="Менеджер" style="rounded=1;whiteSpace=wrap;html=1;" vertex="1" parent="1">
          <mxGeometry x="354" y="700" width="120" height="60" as="geometry" />
        </mxCell>
        <mxCell id="OPkMy_goKpDc7ms2g1P3-14" value="Менеджер" style="rounded=1;whiteSpace=wrap;html=1;" vertex="1" parent="1">
          <mxGeometry x="535" y="700" width="120" height="60" as="geometry" />
        </mxCell>
        <mxCell id="OPkMy_goKpDc7ms2g1P3-17" value="Менеджер" style="rounded=1;whiteSpace=wrap;html=1;" vertex="1" parent="1">
          <mxGeometry x="175" y="790" width="120" height="60" as="geometry" />
        </mxCell>
        <mxCell id="OPkMy_goKpDc7ms2g1P3-18" value="Менеджер" style="rounded=1;whiteSpace=wrap;html=1;" vertex="1" parent="1">
          <mxGeometry x="170" y="870" width="120" height="60" as="geometry" />
        </mxCell>
        <mxCell id="OPkMy_goKpDc7ms2g1P3-19" value="Менеджер" style="rounded=1;whiteSpace=wrap;html=1;" vertex="1" parent="1">
          <mxGeometry x="354" y="790" width="120" height="60" as="geometry" />
        </mxCell>
      </root>
    </mxGraphModel>
  </diagram>
</mxfile>
